<?xml version="1.0" standalone="no"?><!DOCTYPE svg PUBLIC "-//W3C//DTD SVG 1.1//EN" "http://www.w3.org/Graphics/SVG/1.1/DTD/svg11.dtd"><svg t="1628732328501" class="icon" viewBox="0 0 1024 1024" version="1.1" xmlns="http://www.w3.org/2000/svg" p-id="2103" xmlns:xlink="http://www.w3.org/1999/xlink" width="32" height="32"><defs><style type="text/css"></style></defs><path d="M873.78 207.36c-17.73 1.12-31.85 15.25-32.97 32.97v586.75c3.5 32.79-20.13 62.25-52.9 65.94H254.06c-37.67 0.29-69.23-28.42-72.5-65.94v-65.94c2.39-35.38 30.56-63.55 65.94-65.94h514.18c13.19 0 13.19-6.59 13.19-19.78V194.18c0.18-65.91-32.94-131.85-105.61-131.85h-415.2c-73.12 1.98-132.9 58.92-138.44 131.85v652.69c11.41 58.95 59.16 104.04 118.66 112.07h553.64c69.1-3.79 122.14-62.73 118.66-131.85V240.34c-1.11-17.67-15.14-31.77-32.8-32.98z m-692.22-13.18c5.47-36.4 35.75-63.94 72.5-65.94h421.93c13.19 0 32.97 19.78 32.97 65.94V629.3H247.47c-26.38 0-65.94 19.78-65.94 32.97l0.03-468.09z" fill="#666666" p-id="2104"></path><path d="M761.68 761.14H260.66c-18.21 4.06-29.68 22.12-25.61 40.33a33.77 33.77 0 0 0 25.61 25.61h494.43c16.31-1.97 28.03-16.63 26.38-32.97-0.01-19.78-6.6-32.97-19.79-32.97z" fill="#666666" p-id="2105"></path></svg>